# xmcd
#
# Track frame offsets:
# 150
# 23670
# 45038
# 66058
# 83170
# 96309
# 112822
# 131515
# 156443
# 177538
# 197945
# 216102
# 238389
# 258503
#
# Disc length: 3649 seconds
#
#
# Revision: 0
# Processed by: cddbd v1.5.2PL0 Copyright (c) Steve Scherf et al.
# Submitted via: FreeRIP 2.945 
#
DISCID=c00e3f0e
DTITLE=Nanda Malini - Sadu Nada
DYEAR=2002
DGENRE=Oldies
TTITLE0=Maha Bosath
TTITLE1=Suwanda Padma Olu Nada
TTITLE2=Yayi Hangi Yayi
TTITLE3=Swarnamali Sa Rajano
TTITLE4=Wesak Mahe
TTITLE5=Nimala Moksha Prakara
TTITLE6=Bodiya
TTITLE7=Danno budunge
TTITLE8=Pathura Metha
TTITLE9=Budu Sadu
TTITLE10=Siripa Wandimu
TTITLE11=Akuda Nam wi
TTITLE12=Mihinthala Giri Hisin
TTITLE13=Mangalam
EXTD=
EXTT0=
EXTT1=
EXTT2=
EXTT3=
EXTT4=
EXTT5=
EXTT6=
EXTT7=
EXTT8=
EXTT9=
EXTT10=
EXTT11=
EXTT12=
EXTT13=
PLAYORDER=
